# xmcd
# Track frame offsets:
# 150
# 13040
# 29340
# 41830
# 55677
# 73457
# 88885
# 105397
# 118032
# 132210
#
# Disc length: 1955 seconds
# Revision: 0
# Processed by: cddbd v1.4PL0 Copyright (c) Steve Scherf et al.
# Submitted via: VisiTrax 2.9.5.180 - For more info visit www.synapsa.com
#
DISCID=8a07a10a
DTITLE=Penny Gilley - My side of the stor
DYEAR=1999
DGENRE=
TTITLE0=Why cry
TTITLE1=My side of the story
TTITLE2=Take your hands of my heart
TTITLE3=He thinks I still care
TTITLE4=One tear at a time
TTITLE5=Gone before five
TTITLE6=Faithful fool
TTITLE7=I can help
TTITLE8=Losing ou feels good
TTITLE9=When my momma sang the blues
EXTD=
EXTT0=
EXTT1=
EXTT2=
EXTT3=
EXTT4=
EXTT5=
EXTT6=
EXTT7=
EXTT8=
EXTT9=
PLAYORDER=
